<svg width="126" height="41" viewBox="0 0 126 41" fill="none" xmlns="http://www.w3.org/2000/svg">
<path d="M31.0833 27.7332C31.1209 27.8468 31.1209 27.9695 31.0833 28.083C31.0615 28.1963 31.0076 28.3008 30.9282 28.3842L25.8003 33.7764C25.6873 33.8927 25.5523 33.9852 25.4029 34.0483C25.2533 34.1141 25.0913 34.1473 24.928 34.1455H0.607221C0.494588 34.1465 0.38388 34.1163 0.287339 34.058C0.190862 33.9923 0.113847 33.9017 0.0643913 33.7958C0.0302356 33.6883 0.0302356 33.5729 0.0643913 33.4654C0.0844924 33.3537 0.13478 33.2494 0.209792 33.1642L5.34729 27.7722C5.46028 27.6557 5.59543 27.5632 5.74473 27.5001C5.89412 27.4335 6.05621 27.4003 6.2197 27.4029H30.5017C30.6188 27.4007 30.7339 27.4346 30.8312 27.5001C30.9404 27.5452 31.0298 27.6279 31.0833 27.7332ZM25.81 17.4931C25.6946 17.3798 25.5601 17.2877 25.4126 17.2211C25.2615 17.1599 25.1006 17.1271 24.9377 17.1239H0.607221C0.493181 17.1256 0.381888 17.1592 0.285949 17.2211C0.19001 17.2829 0.113259 17.3703 0.0643913 17.4737C0.0308636 17.5812 0.0308636 17.6964 0.0643913 17.804C0.0807163 17.917 0.131501 18.0223 0.209792 18.1052L5.34729 23.507C5.4628 23.6204 5.59733 23.7125 5.74473 23.7791C5.89557 23.841 6.0567 23.8739 6.2197 23.8762H30.5017C30.6188 23.8784 30.7339 23.8445 30.8312 23.7791C30.9292 23.7218 31.0043 23.6327 31.0445 23.5265C31.0941 23.423 31.1107 23.3067 31.0915 23.1937C31.0724 23.0806 31.0187 22.9761 30.9379 22.895L25.81 17.4931ZM0.287339 13.5097C0.38388 13.5679 0.494588 13.5981 0.607221 13.5971H24.9377C25.101 13.5989 25.263 13.5657 25.4126 13.4999C25.5619 13.4368 25.697 13.3444 25.81 13.228L30.9379 7.83585C31.0173 7.75241 31.071 7.64787 31.0929 7.53467C31.1265 7.42712 31.1265 7.31189 31.0929 7.20435C31.0529 7.09813 30.9776 7.00895 30.8797 6.95173C30.7824 6.88627 30.6673 6.85235 30.5502 6.85457H6.18093C6.01743 6.85196 5.85535 6.88512 5.70596 6.95173C5.55666 7.01487 5.42151 7.10737 5.30852 7.22377L0.180713 12.6353C0.0994027 12.7174 0.0452529 12.8225 0.0256169 12.9365C-0.00853898 13.0439 -0.00853898 13.1594 0.0256169 13.2668C0.0885312 13.3707 0.179192 13.4548 0.287339 13.5097Z" fill="white"/>
<path d="M39.537 32V7.892H44.1946V32H39.537ZM54.1658 32L46.8186 21.5696H52.0338L59.6106 32H54.1658ZM42.817 23.9968V20.2248H48.9178C49.7706 20.2248 50.5031 20.0499 51.1154 19.7C51.7495 19.3501 52.2415 18.8581 52.5914 18.224C52.9412 17.5899 53.1162 16.8683 53.1162 16.0592C53.1162 15.2283 52.9412 14.4957 52.5914 13.8616C52.2415 13.2275 51.7495 12.7355 51.1154 12.3856C50.5031 12.0357 49.7706 11.8608 48.9178 11.8608H42.817V7.892H48.4258C50.35 7.892 52.0119 8.17627 53.4114 8.7448C54.8327 9.31333 55.926 10.1771 56.6914 11.336C57.4567 12.4949 57.8394 13.9491 57.8394 15.6984V16.2232C57.8394 17.9944 57.4458 19.4485 56.6586 20.5856C55.8932 21.7227 54.8108 22.5755 53.4114 23.144C52.0119 23.7125 50.35 23.9968 48.4258 23.9968H42.817ZM70.4584 32V26.7192H69.704V20.848C69.704 19.8203 69.4525 19.0549 68.9496 18.552C68.4467 18.0491 67.6704 17.7976 66.6208 17.7976C66.0741 17.7976 65.4181 17.8085 64.6528 17.8304C63.8875 17.8523 63.1112 17.8851 62.324 17.9288C61.5587 17.9507 60.8699 17.9835 60.2576 18.0272V14.1568C60.7605 14.1131 61.3291 14.0693 61.9632 14.0256C62.5973 13.9819 63.2424 13.96 63.8984 13.96C64.5763 13.9381 65.2104 13.9272 65.8008 13.9272C67.6376 13.9272 69.1573 14.1677 70.36 14.6488C71.5845 15.1299 72.5029 15.8843 73.1152 16.912C73.7493 17.9397 74.0664 19.2845 74.0664 20.9464V32H70.4584ZM64.7184 32.4592C63.4283 32.4592 62.2912 32.2296 61.3072 31.7704C60.3451 31.3112 59.5907 30.6552 59.044 29.8024C58.5192 28.9496 58.2568 27.9219 58.2568 26.7192C58.2568 25.4072 58.5739 24.3357 59.208 23.5048C59.864 22.6739 60.7715 22.0507 61.9304 21.6352C63.1112 21.2197 64.4888 21.012 66.0632 21.012H70.196V23.7344H65.9976C64.948 23.7344 64.1389 23.9968 63.5704 24.5216C63.0237 25.0245 62.7504 25.6805 62.7504 26.4896C62.7504 27.2987 63.0237 27.9547 63.5704 28.4576C64.1389 28.9605 64.948 29.212 65.9976 29.212C66.6317 29.212 67.2112 29.1027 67.736 28.884C68.2827 28.6435 68.7309 28.2499 69.0808 27.7032C69.4525 27.1347 69.6603 26.3693 69.704 25.4072L70.8192 26.6864C70.7099 27.9328 70.4037 28.9824 69.9008 29.8352C69.4197 30.688 68.7419 31.344 67.8672 31.8032C67.0144 32.2405 65.9648 32.4592 64.7184 32.4592ZM75.834 32V14.1896H79.442V21.832H79.114C79.114 20.0389 79.3436 18.5411 79.8028 17.3384C80.262 16.1139 80.9399 15.1955 81.8364 14.5832C82.7548 13.9491 83.8919 13.632 85.2476 13.632H85.4444C86.822 13.632 87.9591 13.9491 88.8556 14.5832C89.774 15.1955 90.4519 16.1139 90.8892 17.3384C91.3484 18.5411 91.578 20.0389 91.578 21.832H90.43C90.43 20.0389 90.6596 18.5411 91.1188 17.3384C91.5999 16.1139 92.2887 15.1955 93.1852 14.5832C94.1036 13.9491 95.2407 13.632 96.5964 13.632H96.7932C98.1708 13.632 99.3188 13.9491 100.237 14.5832C101.156 15.1955 101.844 16.1139 102.304 17.3384C102.785 18.5411 103.025 20.0389 103.025 21.832V32H98.466V21.4056C98.466 20.2904 98.1817 19.4048 97.6132 18.7488C97.0447 18.0709 96.2356 17.732 95.186 17.732C94.1364 17.732 93.2945 18.0819 92.6604 18.7816C92.0263 19.4595 91.7092 20.3779 91.7092 21.5368V32H87.15V21.4056C87.15 20.2904 86.8657 19.4048 86.2972 18.7488C85.7287 18.0709 84.9196 17.732 83.87 17.732C82.8204 17.732 81.9785 18.0819 81.3444 18.7816C80.7103 19.4595 80.3932 20.3779 80.3932 21.5368V32H75.834ZM104.781 38.56V14.1896H108.389V21.8648L107.832 21.832C107.919 20.0171 108.291 18.4973 108.947 17.2728C109.625 16.0483 110.521 15.1408 111.636 14.5504C112.752 13.9381 113.998 13.632 115.376 13.632C116.644 13.632 117.781 13.8616 118.787 14.3208C119.815 14.78 120.689 15.4251 121.411 16.256C122.154 17.0869 122.723 18.06 123.116 19.1752C123.51 20.2685 123.707 21.4493 123.707 22.7176V23.4064C123.707 24.6965 123.51 25.8992 123.116 27.0144C122.745 28.1077 122.187 29.0808 121.444 29.9336C120.722 30.7645 119.847 31.4205 118.82 31.9016C117.792 32.3608 116.644 32.5904 115.376 32.5904C114.042 32.5904 112.817 32.3171 111.702 31.7704C110.609 31.2019 109.723 30.3381 109.045 29.1792C108.367 27.9984 107.985 26.4787 107.897 24.62L109.34 26.8176V38.56H104.781ZM114.228 28.7528C115.212 28.7528 116.064 28.5123 116.786 28.0312C117.53 27.5501 118.109 26.8832 118.524 26.0304C118.94 25.1557 119.148 24.1717 119.148 23.0784C119.148 21.9413 118.94 20.9573 118.524 20.1264C118.109 19.2955 117.53 18.6504 116.786 18.1912C116.064 17.7101 115.212 17.4696 114.228 17.4696C113.331 17.4696 112.5 17.6664 111.735 18.06C110.991 18.4536 110.379 19.0331 109.898 19.7984C109.439 20.5637 109.209 21.4821 109.209 22.5536V23.8656C109.209 24.8933 109.45 25.768 109.931 26.4896C110.412 27.2112 111.035 27.7688 111.8 28.1624C112.566 28.556 113.375 28.7528 114.228 28.7528Z" fill="white"/>
</svg>
