<svg width="32" height="29" viewBox="0 0 32 29" fill="none" xmlns="http://www.w3.org/2000/svg">
<path id="Vector" d="M31.0833 21.7332C31.1209 21.8468 31.1209 21.9695 31.0833 22.083C31.0615 22.1963 31.0076 22.3008 30.9282 22.3842L25.8003 27.7764C25.6873 27.8927 25.5523 27.9852 25.4029 28.0483C25.2533 28.1141 25.0913 28.1473 24.928 28.1455H0.607221C0.494588 28.1465 0.38388 28.1163 0.287339 28.058C0.190862 27.9923 0.113847 27.9017 0.0643913 27.7958C0.0302356 27.6883 0.0302356 27.5729 0.0643913 27.4654C0.0844924 27.3537 0.13478 27.2494 0.209792 27.1642L5.34729 21.7722C5.46028 21.6557 5.59543 21.5632 5.74473 21.5001C5.89412 21.4335 6.05621 21.4003 6.2197 21.4029H30.5017C30.6188 21.4007 30.7339 21.4346 30.8312 21.5001C30.9404 21.5452 31.0298 21.6279 31.0833 21.7332ZM25.81 11.4931C25.6946 11.3798 25.5601 11.2877 25.4126 11.2211C25.2615 11.1599 25.1006 11.1271 24.9377 11.1239H0.607221C0.493181 11.1256 0.381888 11.1592 0.285949 11.2211C0.19001 11.2829 0.113259 11.3703 0.0643913 11.4737C0.0308636 11.5812 0.0308636 11.6964 0.0643913 11.804C0.0807163 11.917 0.131501 12.0223 0.209792 12.1052L5.34729 17.507C5.4628 17.6204 5.59733 17.7125 5.74473 17.7791C5.89557 17.841 6.0567 17.8739 6.2197 17.8762H30.5017C30.6188 17.8784 30.7339 17.8445 30.8312 17.7791C30.9292 17.7218 31.0043 17.6327 31.0445 17.5265C31.0941 17.423 31.1107 17.3067 31.0915 17.1937C31.0724 17.0806 31.0187 16.9761 30.9379 16.895L25.81 11.4931ZM0.287339 7.50965C0.38388 7.56787 0.494588 7.59808 0.607221 7.59712H24.9377C25.101 7.5989 25.263 7.56569 25.4126 7.49995C25.5619 7.43681 25.697 7.34442 25.81 7.22798L30.9379 1.83585C31.0173 1.75241 31.071 1.64787 31.0929 1.53467C31.1265 1.42712 31.1265 1.31189 31.0929 1.20435C31.0529 1.09813 30.9776 1.00895 30.8797 0.95173C30.7824 0.886267 30.6673 0.852346 30.5502 0.854574H6.18093C6.01743 0.851964 5.85535 0.885119 5.70596 0.95173C5.55666 1.01487 5.42151 1.10737 5.30852 1.22377L0.180713 6.63526C0.0994027 6.7174 0.0452529 6.82249 0.0256169 6.93647C-0.00853898 7.04389 -0.00853898 7.15938 0.0256169 7.2668C0.0885312 7.37066 0.179192 7.45485 0.287339 7.50965Z" fill="white"/>
</svg>
