<svg width="28" height="24" viewBox="0 0 28 24" fill="none" xmlns="http://www.w3.org/2000/svg">
<path id="Vector" d="M27.226 18.3356C27.2589 18.4351 27.2589 18.5426 27.226 18.6419C27.2068 18.7412 27.1596 18.8328 27.0901 18.9058L22.5986 23.6288C22.4996 23.7307 22.3813 23.8117 22.2505 23.867C22.1194 23.9246 21.9775 23.9537 21.8345 23.9521H0.531866C0.433211 23.953 0.336242 23.9265 0.251681 23.8755C0.167176 23.8179 0.099719 23.7386 0.0564005 23.6458C0.0264834 23.5517 0.0264834 23.4506 0.0564005 23.3565C0.0740071 23.2586 0.118054 23.1672 0.183757 23.0926L4.6837 18.3697C4.78268 18.2677 4.90105 18.1867 5.03182 18.1314C5.16267 18.0731 5.30465 18.044 5.44785 18.0463H26.7165C26.8191 18.0444 26.9199 18.0741 27.0051 18.1314C27.1007 18.1709 27.179 18.2433 27.226 18.3356ZM22.6071 9.36623C22.5059 9.267 22.3881 9.18632 22.259 9.12802C22.1266 9.07439 21.9857 9.04566 21.843 9.04291H0.531866C0.431978 9.04434 0.334496 9.07379 0.250463 9.12802C0.166431 9.18213 0.0992038 9.25874 0.0564005 9.34924C0.0270335 9.44345 0.0270335 9.54436 0.0564005 9.63857C0.0706996 9.73757 0.115182 9.82974 0.183757 9.9024L4.6837 14.6338C4.78488 14.7332 4.90272 14.8138 5.03182 14.8721C5.16394 14.9264 5.30508 14.9552 5.44785 14.9573H26.7165C26.8191 14.9592 26.9199 14.9295 27.0051 14.8721C27.0909 14.822 27.1568 14.7439 27.192 14.6509C27.2354 14.5603 27.2499 14.4584 27.2331 14.3594C27.2164 14.2603 27.1693 14.1689 27.0986 14.0978L22.6071 9.36623ZM0.251681 5.87715C0.336242 5.92814 0.433211 5.9546 0.531866 5.95376H21.843C21.986 5.95531 22.1279 5.92622 22.259 5.86865C22.3897 5.81334 22.5081 5.73242 22.6071 5.63043L27.0986 0.907452C27.1681 0.834359 27.2152 0.742795 27.2343 0.643642C27.2638 0.549445 27.2638 0.448509 27.2343 0.354311C27.1993 0.261275 27.1333 0.183167 27.0476 0.133045C26.9624 0.075706 26.8616 0.0459951 26.759 0.0479463H5.41389C5.27068 0.0456599 5.12871 0.0747004 4.99786 0.133045C4.86709 0.18835 4.74871 0.269367 4.64974 0.371321L0.158287 5.11126C0.0870671 5.18321 0.0396371 5.27526 0.0224379 5.3751C-0.00747931 5.46918 -0.00747931 5.57034 0.0224379 5.66443C0.0775446 5.7554 0.156955 5.82914 0.251681 5.87715Z" fill="black"/>
</svg>
