<svg width="75" height="28" viewBox="0 0 75 28" fill="none" xmlns="http://www.w3.org/2000/svg">
<path d="M0.630586 22V0.883747H4.71019V22H0.630586ZM13.444 22L7.00856 12.864H11.5766L18.2131 22H13.444ZM3.50355 14.99V11.6861H8.84725C9.59422 11.6861 10.2358 11.5329 10.7721 11.2264C11.3276 10.92 11.7585 10.489 12.065 9.93357C12.3714 9.37813 12.5246 8.74608 12.5246 8.03742C12.5246 7.3096 12.3714 6.66797 12.065 6.11253C11.7585 5.55709 11.3276 5.12615 10.7721 4.8197C10.2358 4.51325 9.59422 4.36003 8.84725 4.36003H3.50355V0.883747H8.41631C10.1018 0.883747 11.5574 1.13274 12.7832 1.63072C14.0282 2.1287 14.9858 2.88524 15.6562 3.90035C16.3265 4.91547 16.6617 6.18915 16.6617 7.72139V8.18106C16.6617 9.73246 16.3169 11.0061 15.6274 12.0021C14.9571 12.9981 14.009 13.745 12.7832 14.243C11.5574 14.741 10.1018 14.99 8.41631 14.99H3.50355ZM27.7147 22V17.3745H27.054V12.2319C27.054 11.3317 26.8337 10.6614 26.3932 10.2209C25.9527 9.78034 25.2727 9.56008 24.3534 9.56008C23.8745 9.56008 23.3 9.56966 22.6296 9.58881C21.9592 9.60797 21.2793 9.6367 20.5898 9.675C19.9194 9.69416 19.3161 9.72289 18.7798 9.76119V6.3711C19.2204 6.33279 19.7183 6.29449 20.2738 6.25618C20.8292 6.21788 21.3942 6.19872 21.9688 6.19872C22.5626 6.17957 23.118 6.16999 23.6351 6.16999C25.244 6.16999 26.5751 6.38068 27.6285 6.80204C28.7011 7.22341 29.5055 7.88419 30.0418 8.78439C30.5973 9.68458 30.875 10.8625 30.875 12.3181V22H27.7147ZM22.6871 22.4022C21.557 22.4022 20.5611 22.2011 19.6992 21.7989C18.8564 21.3967 18.1957 20.8221 17.7168 20.0751C17.2572 19.3281 17.0273 18.428 17.0273 17.3745C17.0273 16.2254 17.305 15.2869 17.8605 14.559C18.4351 13.8312 19.2299 13.2854 20.245 12.9214C21.2793 12.5575 22.486 12.3756 23.865 12.3756H27.4849V14.7601H23.8075C22.8882 14.7601 22.1795 14.99 21.6815 15.4497C21.2027 15.8902 20.9633 16.4648 20.9633 17.1734C20.9633 17.8821 21.2027 18.4567 21.6815 18.8972C22.1795 19.3377 22.8882 19.558 23.8075 19.558C24.363 19.558 24.8705 19.4622 25.3302 19.2707C25.809 19.06 26.2016 18.7152 26.5081 18.2364C26.8337 17.7384 27.0157 17.0681 27.054 16.2254L28.0308 17.3458C27.935 18.4375 27.6669 19.3569 27.2263 20.1038C26.805 20.8508 26.2112 21.4254 25.4451 21.8276C24.6981 22.2107 23.7788 22.4022 22.6871 22.4022ZM32.4232 22V6.39983H35.5835V13.0938H35.2962C35.2962 11.5233 35.4973 10.2113 35.8995 9.15787C36.3017 8.0853 36.8955 7.28087 37.6808 6.74458C38.4852 6.18915 39.4812 5.91143 40.6686 5.91143H40.841C42.0477 5.91143 43.0436 6.18915 43.8289 6.74458C44.6333 7.28087 45.2271 8.0853 45.6101 9.15787C46.0123 10.2113 46.2135 11.5233 46.2135 13.0938H45.2079C45.2079 11.5233 45.409 10.2113 45.8112 9.15787C46.2326 8.0853 46.8359 7.28087 47.6212 6.74458C48.4256 6.18915 49.4216 5.91143 50.6091 5.91143H50.7815C51.9881 5.91143 52.9936 6.18915 53.7981 6.74458C54.6025 7.28087 55.2058 8.0853 55.608 9.15787C56.0294 10.2113 56.2401 11.5233 56.2401 13.0938V22H52.2467V12.7203C52.2467 11.7435 51.9977 10.9678 51.4997 10.3932C51.0017 9.7995 50.2931 9.50263 49.3737 9.50263C48.4544 9.50263 47.717 9.80907 47.1615 10.422C46.6061 11.0157 46.3284 11.8201 46.3284 12.8353V22H42.335V12.7203C42.335 11.7435 42.086 10.9678 41.588 10.3932C41.09 9.7995 40.3813 9.50263 39.462 9.50263C38.5427 9.50263 37.8053 9.80907 37.2498 10.422C36.6944 11.0157 36.4167 11.8201 36.4167 12.8353V22H32.4232ZM57.7782 27.7459V6.39983H60.9385V13.1226L60.4501 13.0938C60.5267 11.5041 60.8523 10.173 61.4269 9.10041C62.0206 8.02784 62.8059 7.23299 63.7827 6.71586C64.7595 6.17957 65.8513 5.91143 67.0579 5.91143C68.1688 5.91143 69.1647 6.11253 70.0458 6.51475C70.946 6.91696 71.7121 7.48198 72.3441 8.20979C72.9953 8.93761 73.4933 9.78992 73.8381 10.7667C74.1828 11.7244 74.3552 12.7586 74.3552 13.8695V14.4728C74.3552 15.6029 74.1828 16.6563 73.8381 17.6331C73.5125 18.5908 73.0241 19.4431 72.3729 20.19C71.7408 20.9179 70.9747 21.4924 70.0745 21.9138C69.1743 22.316 68.1688 22.5171 67.0579 22.5171C65.8896 22.5171 64.817 22.2777 63.8402 21.7989C62.8825 21.3009 62.1068 20.5444 61.5131 19.5293C60.9193 18.495 60.5842 17.1639 60.5076 15.5358L61.7717 17.4607V27.7459H57.7782ZM66.0524 19.1558C66.9143 19.1558 67.6612 18.9451 68.2933 18.5237C68.9445 18.1024 69.452 17.5182 69.8159 16.7712C70.1798 16.0051 70.3618 15.1432 70.3618 14.1855C70.3618 13.1896 70.1798 12.3277 69.8159 11.5999C69.452 10.8721 68.9445 10.3071 68.2933 9.90484C67.6612 9.48347 66.9143 9.27279 66.0524 9.27279C65.2671 9.27279 64.5393 9.44517 63.8689 9.78992C63.2177 10.1347 62.6814 10.6422 62.2601 11.3126C61.8578 11.9829 61.6567 12.7874 61.6567 13.7259V14.8751C61.6567 15.7753 61.8674 16.5414 62.2888 17.1734C62.7102 17.8055 63.256 18.2939 63.9264 18.6386C64.5967 18.9834 65.3054 19.1558 66.0524 19.1558Z" fill="black"/>
</svg>
